<svg width="24" height="24" viewBox="0 0 24 24" fill="none" xmlns="http://www.w3.org/2000/svg">
<path d="M21.02 5H19V2.98C19 2.44 18.56 2 18.02 2H17.98C17.44 2 17 2.44 17 2.98V5H14.98C14.44 5 14 5.44 14 5.98V6.02C14 6.56 14.44 7 14.98 7H17V9.02C17 9.56 17.44 10 17.98 10H18.02C18.56 10 19 9.56 19 9.02V7H21.02C21.56 7 22 6.56 22 6.02V5.98C22 5.44 21.56 5 21.02 5ZM16 9.01V8C16 7.45 15.55 7 15 7H12V5C12 3.9 11.1 3 10 3H4C2.9 3 2 3.9 2 5V15C2 16.1 2.9 17 4 17H14C15.1 17 16 16.1 16 15V10C16 9.45 15.55 9.01 15 9.01H16ZM4 15L6.5 11.5L8.5 14L11.5 10L14 15H4Z" fill="currentColor"/>
</svg>
