<svg width="24" height="24" viewBox="0 0 24 24" fill="none" xmlns="http://www.w3.org/2000/svg">
<path d="M18.5448 7.9986C18.7225 8.38939 19.2775 8.38939 19.4552 7.9986L20.25 6.25L21.9986 5.45518C22.3894 5.27755 22.3894 4.72245 21.9986 4.54482L20.25 3.75L19.4552 2.0014C19.2775 1.61061 18.7225 1.61061 18.5448 2.0014L17.75 3.75L16.0014 4.54482C15.6106 4.72245 15.6106 5.27755 16.0014 5.45518L17.75 6.25L18.5448 7.9986Z" fill="currentColor"/>
<path d="M19.4552 16.0014C19.2775 15.6106 18.7225 15.6106 18.5448 16.0014L17.75 17.75L16.0014 18.5448C15.6106 18.7225 15.6106 19.2775 16.0014 19.4552L17.75 20.25L18.5448 21.9986C18.7225 22.3894 19.2775 22.3894 19.4552 21.9986L20.25 20.25L21.9986 19.4552C22.3894 19.2775 22.3894 18.7225 21.9986 18.5448L20.25 17.75L19.4552 16.0014Z" fill="currentColor"/>
<path d="M11.5 9.5L9.45518 5.0014C9.27755 4.61061 8.72245 4.61061 8.54482 5.0014L6.5 9.5L2.0014 11.5448C1.61061 11.7225 1.61061 12.2775 2.0014 12.4552L6.5 14.5L8.54482 18.9986C8.72245 19.3894 9.27755 19.3894 9.45518 18.9986L11.5 14.5L15.9986 12.4552C16.3894 12.2775 16.3894 11.7225 15.9986 11.5448L11.5 9.5ZM9.99 12.99L9.45525 14.1675C9.27769 14.5585 8.72231 14.5585 8.54475 14.1675L8.01 12.99L6.83248 12.4553C6.44147 12.2777 6.44147 11.7223 6.83248 11.5447L8.01 11.01L8.54475 9.83248C8.72231 9.44147 9.27769 9.44147 9.45525 9.83248L9.99 11.01L11.1675 11.5447C11.5585 11.7223 11.5585 12.2777 11.1675 12.4553L9.99 12.99Z" fill="currentColor"/>
</svg>
